<?xml version="1.0" encoding="UTF-8"?>
<svg xmlns="http://www.w3.org/2000/svg" width="1240" height="535" viewBox="0 0 1240 535">
<rect width="100%" height="100%" fill="#ffffff"/>
<text x="36.0" y="42.0" text-anchor="start" font-family="system-ui, -apple-system, BlinkMacSystemFont, 'Segoe UI', sans-serif" font-size="25" font-weight="800" fill="#0f172a">Linear Attention</text>
<text x="36.0" y="68.0" text-anchor="start" font-family="system-ui, -apple-system, BlinkMacSystemFont, 'Segoe UI', sans-serif" font-size="13" font-weight="400" fill="#475569">Replace softmax attention with kernel features and reassociate K^T V before multiplying by Q.</text>
<rect x="560.0" y="205.0" width="300.0" height="250.0" rx="12" fill="none" stroke="#94a3b8" stroke-width="2" stroke-dasharray="7 7"/>
<text x="710.0" y="227.0" text-anchor="middle" font-family="system-ui, -apple-system, BlinkMacSystemFont, 'Segoe UI', sans-serif" font-size="13" font-weight="700" fill="#475569">associative contraction, no LxT tensor</text>
<path d="M 80.0,175.0 C 134.2,175.0 180.8,175.0 235.0,175.0" fill="none" stroke="#334155" stroke-width="4"/>
<rect x="143.5" y="161.0" width="28" height="20" rx="5" fill="#ffffff" fill-opacity="0.92" stroke="#e2e8f0"/><text x="157.5" y="176.0" text-anchor="middle" font-family="'SFMono-Regular', Consolas, 'Liberation Mono', monospace" font-size="11" font-weight="400" fill="#334155">D</text>
<path d="M 235.0,175.0 C 296.2,175.0 348.8,175.0 410.0,175.0" fill="none" stroke="#334155" stroke-width="4"/>
<rect x="306.0" y="161.0" width="33" height="20" rx="5" fill="#ffffff" fill-opacity="0.92" stroke="#e2e8f0"/><text x="322.5" y="176.0" text-anchor="middle" font-family="'SFMono-Regular', Consolas, 'Liberation Mono', monospace" font-size="11" font-weight="400" fill="#334155">H,F</text>
<path d="M 80.0,305.0 C 134.2,305.0 180.8,305.0 235.0,305.0" fill="none" stroke="#334155" stroke-width="4"/>
<rect x="143.5" y="291.0" width="28" height="20" rx="5" fill="#ffffff" fill-opacity="0.92" stroke="#e2e8f0"/><text x="157.5" y="306.0" text-anchor="middle" font-family="'SFMono-Regular', Consolas, 'Liberation Mono', monospace" font-size="11" font-weight="400" fill="#334155">D</text>
<path d="M 235.0,305.0 C 296.2,305.0 348.8,305.0 410.0,305.0" fill="none" stroke="#334155" stroke-width="4"/>
<rect x="306.0" y="291.0" width="33" height="20" rx="5" fill="#ffffff" fill-opacity="0.92" stroke="#e2e8f0"/><text x="322.5" y="306.0" text-anchor="middle" font-family="'SFMono-Regular', Consolas, 'Liberation Mono', monospace" font-size="11" font-weight="400" fill="#334155">H,F</text>
<path d="M 80.0,435.0 C 134.2,435.0 180.8,435.0 235.0,435.0" fill="none" stroke="#334155" stroke-width="4"/>
<rect x="143.5" y="421.0" width="28" height="20" rx="5" fill="#ffffff" fill-opacity="0.92" stroke="#e2e8f0"/><text x="157.5" y="436.0" text-anchor="middle" font-family="'SFMono-Regular', Consolas, 'Liberation Mono', monospace" font-size="11" font-weight="400" fill="#334155">D</text>
<path d="M 235.0,435.0 C 296.2,435.0 348.8,435.0 410.0,435.0" fill="none" stroke="#334155" stroke-width="4"/>
<rect x="306.0" y="421.0" width="33" height="20" rx="5" fill="#ffffff" fill-opacity="0.92" stroke="#e2e8f0"/><text x="322.5" y="436.0" text-anchor="middle" font-family="'SFMono-Regular', Consolas, 'Liberation Mono', monospace" font-size="11" font-weight="400" fill="#334155">H,K</text>
<path d="M 410.0,305.0 C 481.8,305.0 543.2,360.0 615.0,360.0" fill="none" stroke="#334155" stroke-width="4"/>
<rect x="482.0" y="318.5" width="61" height="20" rx="5" fill="#ffffff" fill-opacity="0.92" stroke="#e2e8f0"/><text x="512.5" y="333.5" text-anchor="middle" font-family="'SFMono-Regular', Consolas, 'Liberation Mono', monospace" font-size="11" font-weight="400" fill="#334155">B,T,H,F</text>
<path d="M 410.0,435.0 C 481.8,435.0 543.2,360.0 615.0,360.0" fill="none" stroke="#334155" stroke-width="4"/>
<rect x="482.0" y="383.5" width="61" height="20" rx="5" fill="#ffffff" fill-opacity="0.92" stroke="#e2e8f0"/><text x="512.5" y="398.5" text-anchor="middle" font-family="'SFMono-Regular', Consolas, 'Liberation Mono', monospace" font-size="11" font-weight="400" fill="#334155">B,T,H,K</text>
<path d="M 410.0,305.0 C 481.8,305.0 543.2,245.0 615.0,245.0" fill="none" stroke="#334155" stroke-width="4"/>
<rect x="482.0" y="261.0" width="61" height="20" rx="5" fill="#ffffff" fill-opacity="0.92" stroke="#e2e8f0"/><text x="512.5" y="276.0" text-anchor="middle" font-family="'SFMono-Regular', Consolas, 'Liberation Mono', monospace" font-size="11" font-weight="400" fill="#334155">B,T,H,F</text>
<path d="M 410.0,175.0 C 490.0,175.0 715.0,245.0 795.0,245.0" fill="none" stroke="#334155" stroke-width="4"/>
<rect x="582.5" y="196.0" width="40" height="20" rx="5" fill="#ffffff" fill-opacity="0.92" stroke="#e2e8f0"/><text x="602.5" y="211.0" text-anchor="middle" font-family="'SFMono-Regular', Consolas, 'Liberation Mono', monospace" font-size="11" font-weight="400" fill="#334155">BLHF</text>
<path d="M 615.0,245.0 C 678.0,245.0 732.0,245.0 795.0,245.0" fill="none" stroke="#334155" stroke-width="4"/>
<rect x="688.5" y="231.0" width="33" height="20" rx="5" fill="#ffffff" fill-opacity="0.92" stroke="#e2e8f0"/><text x="705.0" y="246.0" text-anchor="middle" font-family="'SFMono-Regular', Consolas, 'Liberation Mono', monospace" font-size="11" font-weight="400" fill="#334155">BHF</text>
<path d="M 410.0,175.0 C 525.0,175.0 720.0,385.0 835.0,385.0" fill="none" stroke="#334155" stroke-width="4"/>
<rect x="602.5" y="266.0" width="40" height="20" rx="5" fill="#ffffff" fill-opacity="0.92" stroke="#e2e8f0"/><text x="622.5" y="281.0" text-anchor="middle" font-family="'SFMono-Regular', Consolas, 'Liberation Mono', monospace" font-size="11" font-weight="400" fill="#334155">BLHF</text>
<path d="M 615.0,360.0 C 692.0,360.0 758.0,385.0 835.0,385.0" fill="none" stroke="#334155" stroke-width="4"/>
<rect x="705.0" y="358.5" width="40" height="20" rx="5" fill="#ffffff" fill-opacity="0.92" stroke="#e2e8f0"/><text x="725.0" y="373.5" text-anchor="middle" font-family="'SFMono-Regular', Consolas, 'Liberation Mono', monospace" font-size="11" font-weight="400" fill="#334155">BHFK</text>
<path d="M 795.0,245.0 C 813.0,245.0 817.0,385.0 835.0,385.0" fill="none" stroke="#334155" stroke-width="4"/>
<rect x="788.0" y="301.0" width="54" height="20" rx="5" fill="#ffffff" fill-opacity="0.92" stroke="#e2e8f0"/><text x="815.0" y="316.0" text-anchor="middle" font-family="'SFMono-Regular', Consolas, 'Liberation Mono', monospace" font-size="11" font-weight="400" fill="#334155">divide</text>
<path d="M 835.0,385.0 C 894.5,385.0 945.5,385.0 1005.0,385.0" fill="none" stroke="#334155" stroke-width="4"/>
<rect x="900.0" y="371.0" width="40" height="20" rx="5" fill="#ffffff" fill-opacity="0.92" stroke="#e2e8f0"/><text x="920.0" y="386.0" text-anchor="middle" font-family="'SFMono-Regular', Consolas, 'Liberation Mono', monospace" font-size="11" font-weight="400" fill="#334155">BLHK</text>
<path d="M 1005.0,385.0 C 1054.0,385.0 1096.0,385.0 1145.0,385.0" fill="none" stroke="#334155" stroke-width="4"/>
<rect x="1061.0" y="371.0" width="28" height="20" rx="5" fill="#ffffff" fill-opacity="0.92" stroke="#e2e8f0"/><text x="1075.0" y="386.0" text-anchor="middle" font-family="'SFMono-Regular', Consolas, 'Liberation Mono', monospace" font-size="11" font-weight="400" fill="#334155">D</text>
<rect x="32.0" y="147.0" width="96" height="56" rx="10" fill="#f8fafc" stroke="#334155" stroke-width="2.2"/>
<text x="80.0" y="171.0" text-anchor="middle" font-family="system-ui, -apple-system, BlinkMacSystemFont, 'Segoe UI', sans-serif" font-size="14" font-weight="700" fill="#111827">input</text>
<text x="80.0" y="193.0" text-anchor="middle" font-family="'SFMono-Regular', Consolas, 'Liberation Mono', monospace" font-size="11" font-weight="400" fill="#475569">BLD</text>
<rect x="32.0" y="277.0" width="96" height="56" rx="10" fill="#f8fafc" stroke="#334155" stroke-width="2.2"/>
<text x="80.0" y="301.0" text-anchor="middle" font-family="system-ui, -apple-system, BlinkMacSystemFont, 'Segoe UI', sans-serif" font-size="14" font-weight="700" fill="#111827">memory</text>
<text x="80.0" y="323.0" text-anchor="middle" font-family="'SFMono-Regular', Consolas, 'Liberation Mono', monospace" font-size="11" font-weight="400" fill="#475569">BTD</text>
<rect x="32.0" y="407.0" width="96" height="56" rx="10" fill="#f8fafc" stroke="#334155" stroke-width="2.2"/>
<text x="80.0" y="431.0" text-anchor="middle" font-family="system-ui, -apple-system, BlinkMacSystemFont, 'Segoe UI', sans-serif" font-size="14" font-weight="700" fill="#111827">memory</text>
<text x="80.0" y="453.0" text-anchor="middle" font-family="'SFMono-Regular', Consolas, 'Liberation Mono', monospace" font-size="11" font-weight="400" fill="#475569">BTD</text>
<rect x="196.0" y="150.0" width="78" height="50" rx="10" fill="#eef2ff" stroke="#4338ca" stroke-width="2.2"/>
<text x="235.0" y="171.0" text-anchor="middle" font-family="system-ui, -apple-system, BlinkMacSystemFont, 'Segoe UI', sans-serif" font-size="14" font-weight="700" fill="#111827">W^Q</text>
<text x="235.0" y="190.0" text-anchor="middle" font-family="'SFMono-Regular', Consolas, 'Liberation Mono', monospace" font-size="11" font-weight="400" fill="#475569">DHF</text>
<rect x="196.0" y="280.0" width="78" height="50" rx="10" fill="#eef2ff" stroke="#4338ca" stroke-width="2.2"/>
<text x="235.0" y="301.0" text-anchor="middle" font-family="system-ui, -apple-system, BlinkMacSystemFont, 'Segoe UI', sans-serif" font-size="14" font-weight="700" fill="#111827">W^K</text>
<text x="235.0" y="320.0" text-anchor="middle" font-family="'SFMono-Regular', Consolas, 'Liberation Mono', monospace" font-size="11" font-weight="400" fill="#475569">DHF</text>
<rect x="196.0" y="410.0" width="78" height="50" rx="10" fill="#eef2ff" stroke="#4338ca" stroke-width="2.2"/>
<text x="235.0" y="431.0" text-anchor="middle" font-family="system-ui, -apple-system, BlinkMacSystemFont, 'Segoe UI', sans-serif" font-size="14" font-weight="700" fill="#111827">W^V</text>
<text x="235.0" y="450.0" text-anchor="middle" font-family="'SFMono-Regular', Consolas, 'Liberation Mono', monospace" font-size="11" font-weight="400" fill="#475569">DHK</text>
<rect x="354.0" y="149.0" width="112" height="52" rx="10" fill="#fff7ed" stroke="#c2410c" stroke-width="2.2"/>
<text x="410.0" y="171.0" text-anchor="middle" font-family="system-ui, -apple-system, BlinkMacSystemFont, 'Segoe UI', sans-serif" font-size="14" font-weight="700" fill="#111827">phi(Q)</text>
<text x="410.0" y="191.0" text-anchor="middle" font-family="'SFMono-Regular', Consolas, 'Liberation Mono', monospace" font-size="11" font-weight="400" fill="#475569">BLHF</text>
<rect x="354.0" y="279.0" width="112" height="52" rx="10" fill="#fff7ed" stroke="#c2410c" stroke-width="2.2"/>
<text x="410.0" y="301.0" text-anchor="middle" font-family="system-ui, -apple-system, BlinkMacSystemFont, 'Segoe UI', sans-serif" font-size="14" font-weight="700" fill="#111827">phi(K)</text>
<text x="410.0" y="321.0" text-anchor="middle" font-family="'SFMono-Regular', Consolas, 'Liberation Mono', monospace" font-size="11" font-weight="400" fill="#475569">BTHF</text>
<rect x="362.0" y="407.0" width="96" height="56" rx="10" fill="#ecfeff" stroke="#0e7490" stroke-width="2.2"/>
<text x="410.0" y="431.0" text-anchor="middle" font-family="system-ui, -apple-system, BlinkMacSystemFont, 'Segoe UI', sans-serif" font-size="14" font-weight="700" fill="#111827">V</text>
<text x="410.0" y="453.0" text-anchor="middle" font-family="'SFMono-Regular', Consolas, 'Liberation Mono', monospace" font-size="11" font-weight="400" fill="#475569">BTHK</text>
<rect x="559.0" y="334.0" width="112" height="52" rx="10" fill="#fff7ed" stroke="#c2410c" stroke-width="2.2"/>
<text x="615.0" y="356.0" text-anchor="middle" font-family="system-ui, -apple-system, BlinkMacSystemFont, 'Segoe UI', sans-serif" font-size="14" font-weight="700" fill="#111827">K^T V</text>
<text x="615.0" y="376.0" text-anchor="middle" font-family="'SFMono-Regular', Consolas, 'Liberation Mono', monospace" font-size="11" font-weight="400" fill="#475569">BHFK</text>
<rect x="559.0" y="219.0" width="112" height="52" rx="10" fill="#fff7ed" stroke="#c2410c" stroke-width="2.2"/>
<text x="615.0" y="241.0" text-anchor="middle" font-family="system-ui, -apple-system, BlinkMacSystemFont, 'Segoe UI', sans-serif" font-size="14" font-weight="700" fill="#111827">sum K</text>
<text x="615.0" y="261.0" text-anchor="middle" font-family="'SFMono-Regular', Consolas, 'Liberation Mono', monospace" font-size="11" font-weight="400" fill="#475569">BHF</text>
<rect x="739.0" y="219.0" width="112" height="52" rx="10" fill="#fff7ed" stroke="#c2410c" stroke-width="2.2"/>
<text x="795.0" y="241.0" text-anchor="middle" font-family="system-ui, -apple-system, BlinkMacSystemFont, 'Segoe UI', sans-serif" font-size="14" font-weight="700" fill="#111827">norm</text>
<text x="795.0" y="261.0" text-anchor="middle" font-family="'SFMono-Regular', Consolas, 'Liberation Mono', monospace" font-size="11" font-weight="400" fill="#475569">BLH</text>
<rect x="779.0" y="359.0" width="112" height="52" rx="10" fill="#fff7ed" stroke="#c2410c" stroke-width="2.2"/>
<text x="835.0" y="381.0" text-anchor="middle" font-family="system-ui, -apple-system, BlinkMacSystemFont, 'Segoe UI', sans-serif" font-size="14" font-weight="700" fill="#111827">Q(K^T V)</text>
<text x="835.0" y="401.0" text-anchor="middle" font-family="'SFMono-Regular', Consolas, 'Liberation Mono', monospace" font-size="11" font-weight="400" fill="#475569">BLHK</text>
<rect x="966.0" y="360.0" width="78" height="50" rx="10" fill="#eef2ff" stroke="#4338ca" stroke-width="2.2"/>
<text x="1005.0" y="381.0" text-anchor="middle" font-family="system-ui, -apple-system, BlinkMacSystemFont, 'Segoe UI', sans-serif" font-size="14" font-weight="700" fill="#111827">W^O</text>
<text x="1005.0" y="400.0" text-anchor="middle" font-family="'SFMono-Regular', Consolas, 'Liberation Mono', monospace" font-size="11" font-weight="400" fill="#475569">HKD</text>
<rect x="1097.0" y="357.0" width="96" height="56" rx="10" fill="#f5f3ff" stroke="#7c3aed" stroke-width="2.2"/>
<text x="1145.0" y="381.0" text-anchor="middle" font-family="system-ui, -apple-system, BlinkMacSystemFont, 'Segoe UI', sans-serif" font-size="14" font-weight="700" fill="#111827">out</text>
<text x="1145.0" y="403.0" text-anchor="middle" font-family="'SFMono-Regular', Consolas, 'Liberation Mono', monospace" font-size="11" font-weight="400" fill="#475569">BLD</text>
</svg>